<svg width="14" height="14" viewBox="0 0 14 14" fill="none" xmlns="http://www.w3.org/2000/svg">
<path fill-rule="evenodd" clip-rule="evenodd" d="M2.10095 0.63623C1.10563 0.63623 0.454614 1.34281 0.454614 2.272C0.454614 3.18093 1.0868 3.90896 2.06233 3.90896H2.08177C3.09636 3.90896 3.72734 3.18107 3.72734 2.272C3.70822 1.34281 3.09636 0.63623 2.10095 0.63623ZM13.5454 9.14343V13.7273H10.8657V9.45043C10.8657 8.37606 10.4781 7.64284 9.50811 7.64284C8.76765 7.64284 8.327 8.13698 8.13315 8.61497C8.06245 8.78585 8.04426 9.02369 8.04426 9.26289V13.7273H5.36361C5.36361 13.7273 5.39971 6.48372 5.36361 5.73324H8.044V6.86636C8.0425 6.86869 8.04087 6.87108 8.0392 6.87349C8.03801 6.8752 8.0368 6.87692 8.03558 6.87864C8.03232 6.88325 8.02908 6.88785 8.02638 6.89218H8.044V6.86636C8.40011 6.32244 9.0361 5.54543 10.4596 5.54543C12.2233 5.54541 13.5454 6.68798 13.5454 9.14343ZM2.90914 13.7273H0.45459V5.54543H2.90914V13.7273Z" fill="black"/>
</svg>
