<svg width="17" height="14" viewBox="0 0 17 14" fill="none" xmlns="http://www.w3.org/2000/svg">
<path fill-rule="evenodd" clip-rule="evenodd" d="M5.6384 13.085C11.6056 13.085 14.8527 8.17085 14.8527 3.87118V3.43218C15.4658 2.9647 15.9991 2.40092 16.4318 1.76277C15.8435 2.01865 15.2239 2.19569 14.5892 2.28929C15.2419 1.8795 15.7368 1.26094 15.9933 0.534226C15.3593 0.88782 14.6805 1.15404 13.9752 1.32563C13.3743 0.649172 12.5104 0.265414 11.6056 0.273061C9.82366 0.299783 8.3855 1.73774 8.35852 3.5197C8.33846 3.75725 8.36827 3.99637 8.44604 4.22172C5.83378 4.09549 3.40305 2.84814 1.77726 0.799581C1.48838 1.30779 1.33707 1.88256 1.33826 2.46713C1.36191 3.5418 1.87998 4.54547 2.74231 5.18724C2.21551 5.17618 1.70121 5.02463 1.2526 4.74824C1.25027 6.2988 2.35759 7.62896 3.88287 7.90783C3.59714 7.98496 3.30069 8.01468 3.00534 7.99581C2.79675 8.00978 2.58756 7.97981 2.3913 7.90783C2.83128 9.24054 4.06081 10.1534 5.46382 10.1889C4.31044 11.0899 2.89118 11.5836 1.42764 11.593C1.16079 11.6074 0.893399 11.5777 0.63623 11.505C2.08845 12.5596 3.84391 13.1139 5.6384 13.0846" fill="black"/>
</svg>
