<svg width="19" height="13" viewBox="0 0 19 13" fill="none" xmlns="http://www.w3.org/2000/svg">
<path d="M17.9897 2.19352C17.7851 1.44015 17.1969 0.851992 16.4444 0.648313C15.0725 0.272949 9.58456 0.272949 9.58456 0.272949C9.58456 0.272949 4.09666 0.272949 2.72468 0.634571C1.97329 0.848563 1.38763 1.43941 1.17941 2.19352C0.818359 3.56371 0.818359 6.4104 0.818359 6.4104C0.818359 6.4104 0.818359 9.26974 1.17941 10.6269C1.38455 11.3796 1.97263 11.967 2.72468 12.1703C4.1111 12.5457 9.58456 12.5457 9.58456 12.5457C9.58456 12.5457 15.0725 12.5457 16.4444 12.1841C17.1969 11.9804 17.7851 11.3922 17.9897 10.6388C18.3508 9.26685 18.3508 6.42233 18.3508 6.42233C18.3508 6.42233 18.3652 3.56371 17.9897 2.19352Z" fill="black"/>
<path d="M8.06543 9.03904V3.7793L12.7408 6.40899L8.06543 9.03904Z" fill="white"/>
</svg>
